<svg width="1920" height="1080" viewBox="0 0 1920 1080" fill="none" xmlns="http://www.w3.org/2000/svg">
<path d="M519.433 209.75L519 209L518.567 209.75L475.266 284.75L474.833 285.5H475.699H562.301H563.167L562.734 284.75L519.433 209.75Z" stroke="black"/>
<path d="M666.567 177.25L667 178L667.433 177.25L710.734 102.25L711.167 101.5H710.301L623.699 101.5H622.833L623.266 102.25L666.567 177.25Z" stroke="black"/>
<path d="M626.433 367.75L626 367L625.567 367.75L582.266 442.75L581.833 443.5H582.699H669.301H670.167L669.734 442.75L626.433 367.75Z" stroke="black"/>
<path d="M878.567 552.25L879 553L879.433 552.25L922.734 477.25L923.167 476.5H922.301H835.699H834.833L835.266 477.25L878.567 552.25Z" stroke="black"/>
<path d="M910.433 94.75L910 94L909.567 94.75L866.266 169.75L865.833 170.5H866.699H953.301H954.167L953.734 169.75L910.433 94.75Z" stroke="black"/>
<path d="M1495.57 334.25L1496 335L1496.43 334.25L1539.73 259.25L1540.17 258.5H1539.3H1452.7H1451.83L1452.27 259.25L1495.57 334.25Z" stroke="black"/>
<path d="M649.161 578.786L648.389 578.393L648.434 579.258L652.967 665.742L653.012 666.607L653.738 666.135L726.369 618.968L727.096 618.496L726.324 618.103L649.161 578.786Z" stroke="black"/>
<path d="M937.947 354.054L937.1 353.874L937.367 354.698L964.129 437.062L964.397 437.886L964.976 437.242L1022.92 372.884L1023.5 372.24L1022.66 372.06L937.947 354.054Z" stroke="black"/>
<path d="M767.433 293.75L767 293L766.567 293.75L723.266 368.75L722.833 369.5H723.699H810.301H811.167L810.734 368.75L767.433 293.75Z" stroke="black"/>
<path d="M914.567 261.25L915 262L915.433 261.25L958.734 186.25L959.167 185.5H958.301H871.699H870.833L871.266 186.25L914.567 261.25Z" stroke="black"/>
<path d="M810.433 585.75L810 585L809.567 585.75L766.266 660.75L765.833 661.5H766.699H853.301H854.167L853.734 660.75L810.433 585.75Z" stroke="black"/>
<path d="M1126.57 636.25L1127 637L1127.43 636.25L1170.73 561.25L1171.17 560.5H1170.3H1083.7H1082.83L1083.27 561.25L1126.57 636.25Z" stroke="black"/>
<path d="M1158.43 178.75L1158 178L1157.57 178.75L1114.27 253.75L1113.83 254.5H1114.7H1201.3H1202.17L1201.73 253.75L1158.43 178.75Z" stroke="black"/>
<path d="M1743.57 418.25L1744 419L1744.43 418.25L1787.73 343.25L1788.17 342.5H1787.3H1700.7H1699.83L1700.27 343.25L1743.57 418.25Z" stroke="black"/>
<path d="M897.161 662.786L896.389 662.393L896.434 663.258L900.967 749.742L901.012 750.607L901.738 750.135L974.369 702.968L975.096 702.496L974.324 702.103L897.161 662.786Z" stroke="black"/>
<path d="M1185.95 438.054L1185.1 437.874L1185.37 438.698L1212.13 521.062L1212.4 521.886L1212.98 521.242L1270.92 456.884L1271.5 456.24L1270.66 456.06L1185.95 438.054Z" stroke="black"/>
<path d="M67.433 50.3638L67 49.6138L66.567 50.3638L23.2657 125.364L22.8327 126.114H23.6987H110.301H111.167L110.734 125.364L67.433 50.3638Z" stroke="black"/>
<path d="M319.567 234.864L320 235.614L320.433 234.864L363.734 159.864L364.167 159.114H363.301H276.699H275.833L276.266 159.864L319.567 234.864Z" stroke="black"/>
<path d="M90.1605 261.4L89.3889 261.007L89.4342 261.872L93.9666 348.356L94.012 349.221L94.7383 348.749L167.369 301.582L168.096 301.11L167.324 300.717L90.1605 261.4Z" stroke="black"/>
<path d="M378.947 36.6681L378.1 36.4881L378.367 37.3117L405.129 119.676L405.397 120.499L405.976 119.856L463.924 55.4975L464.504 54.8539L463.657 54.6738L378.947 36.6681Z" stroke="black"/>
<path d="M251.433 268.364L251 267.614L250.567 268.364L207.266 343.364L206.833 344.114H207.699H294.301H295.167L294.734 343.364L251.433 268.364Z" stroke="black"/>
<path d="M567.567 318.864L568 319.614L568.433 318.864L611.734 243.864L612.167 243.114H611.301H524.699H523.833L524.266 243.864L567.567 318.864Z" stroke="black"/>
<path d="M1184.57 100.864L1185 101.614L1185.43 100.864L1228.73 25.8638L1229.17 25.1138H1228.3L1141.7 25.1138H1140.83L1141.27 25.8638L1184.57 100.864Z" stroke="black"/>
<path d="M338.161 345.4L337.389 345.007L337.434 345.872L341.967 432.356L342.012 433.221L342.738 432.749L415.369 385.582L416.096 385.11L415.324 384.717L338.161 345.4Z" stroke="black"/>
<path d="M1368.56 421.668L1367.71 421.488L1367.98 422.312L1394.74 504.676L1395.01 505.499L1395.59 504.856L1453.54 440.497L1454.12 439.854L1453.27 439.674L1368.56 421.668Z" stroke="black"/>
<path d="M519.433 209.75L519 209L518.567 209.75L475.266 284.75L474.833 285.5H475.699H562.301H563.167L562.734 284.75L519.433 209.75Z" stroke="black"/>
<path d="M666.567 177.25L667 178L667.433 177.25L710.734 102.25L711.167 101.5H710.301L623.699 101.5H622.833L623.266 102.25L666.567 177.25Z" stroke="black"/>
<path d="M626.433 367.75L626 367L625.567 367.75L582.266 442.75L581.833 443.5H582.699H669.301H670.167L669.734 442.75L626.433 367.75Z" stroke="black"/>
<path d="M878.567 552.25L879 553L879.433 552.25L922.734 477.25L923.167 476.5H922.301H835.699H834.833L835.266 477.25L878.567 552.25Z" stroke="black"/>
<path d="M910.433 94.75L910 94L909.567 94.75L866.266 169.75L865.833 170.5H866.699H953.301H954.167L953.734 169.75L910.433 94.75Z" stroke="black"/>
<path d="M1495.57 334.25L1496 335L1496.43 334.25L1539.73 259.25L1540.17 258.5H1539.3H1452.7H1451.83L1452.27 259.25L1495.57 334.25Z" stroke="black"/>
<path d="M649.161 578.786L648.389 578.393L648.434 579.258L652.967 665.742L653.012 666.607L653.738 666.135L726.369 618.968L727.096 618.496L726.324 618.103L649.161 578.786Z" stroke="black"/>
<path d="M937.947 354.054L937.1 353.874L937.367 354.698L964.129 437.062L964.397 437.886L964.976 437.242L1022.92 372.884L1023.5 372.24L1022.66 372.06L937.947 354.054Z" stroke="black"/>
<path d="M767.433 293.75L767 293L766.567 293.75L723.266 368.75L722.833 369.5H723.699H810.301H811.167L810.734 368.75L767.433 293.75Z" stroke="black"/>
<path d="M914.567 261.25L915 262L915.433 261.25L958.734 186.25L959.167 185.5H958.301H871.699H870.833L871.266 186.25L914.567 261.25Z" stroke="black"/>
<path d="M810.433 585.75L810 585L809.567 585.75L766.266 660.75L765.833 661.5H766.699H853.301H854.167L853.734 660.75L810.433 585.75Z" stroke="black"/>
<path d="M1126.57 636.25L1127 637L1127.43 636.25L1170.73 561.25L1171.17 560.5H1170.3H1083.7H1082.83L1083.27 561.25L1126.57 636.25Z" stroke="black"/>
<path d="M1158.43 178.75L1158 178L1157.57 178.75L1114.27 253.75L1113.83 254.5H1114.7H1201.3H1202.17L1201.73 253.75L1158.43 178.75Z" stroke="black"/>
<path d="M1743.57 418.25L1744 419L1744.43 418.25L1787.73 343.25L1788.17 342.5H1787.3H1700.7H1699.83L1700.27 343.25L1743.57 418.25Z" stroke="black"/>
<path d="M897.161 662.786L896.389 662.393L896.434 663.258L900.967 749.742L901.012 750.607L901.738 750.135L974.369 702.968L975.096 702.496L974.324 702.103L897.161 662.786Z" stroke="black"/>
<path d="M1185.95 438.054L1185.1 437.874L1185.37 438.698L1212.13 521.062L1212.4 521.886L1212.98 521.242L1270.92 456.884L1271.5 456.24L1270.66 456.06L1185.95 438.054Z" stroke="black"/>
<path d="M1829.57 206.25L1830 207L1830.43 206.25L1873.73 131.25L1874.17 130.5H1873.3H1786.7H1785.83L1786.27 131.25L1829.57 206.25Z" stroke="black"/>
<path d="M1492.43 50.75L1492 50L1491.57 50.75L1448.27 125.75L1447.83 126.5H1448.7H1535.3H1536.17L1535.73 125.75L1492.43 50.75Z" stroke="black"/>
<path d="M1519.95 310.054L1519.1 309.874L1519.37 310.698L1546.13 393.062L1546.4 393.886L1546.98 393.242L1604.92 328.884L1605.5 328.24L1604.66 328.06L1519.95 310.054Z" stroke="black"/>
<path d="M1829.57 206.25L1830 207L1830.43 206.25L1873.73 131.25L1874.17 130.5H1873.3H1786.7H1785.83L1786.27 131.25L1829.57 206.25Z" stroke="black"/>
<path d="M1492.43 50.75L1492 50L1491.57 50.75L1448.27 125.75L1447.83 126.5H1448.7H1535.3H1536.17L1535.73 125.75L1492.43 50.75Z" stroke="black"/>
<path d="M1519.95 310.054L1519.1 309.874L1519.37 310.698L1546.13 393.062L1546.4 393.886L1546.98 393.242L1604.92 328.884L1605.5 328.24L1604.66 328.06L1519.95 310.054Z" stroke="black"/>
<path d="M1743.57 647.25L1744 648L1744.43 647.25L1787.73 572.25L1788.17 571.5H1787.3H1700.7H1699.83L1700.27 572.25L1743.57 647.25Z" stroke="black"/>
<path d="M1374.57 949.25L1375 950L1375.43 949.25L1418.73 874.25L1419.17 873.5H1418.3H1331.7H1330.83L1331.27 874.25L1374.57 949.25Z" stroke="black"/>
<path d="M1253.56 748.668L1252.71 748.488L1252.98 749.312L1279.74 831.676L1280.01 832.499L1280.59 831.856L1338.54 767.497L1339.12 766.854L1338.27 766.674L1253.56 748.668Z" stroke="black"/>
<path d="M1743.57 647.25L1744 648L1744.43 647.25L1787.73 572.25L1788.17 571.5H1787.3H1700.7H1699.83L1700.27 572.25L1743.57 647.25Z" stroke="black"/>
<path d="M1374.57 949.25L1375 950L1375.43 949.25L1418.73 874.25L1419.17 873.5H1418.3H1331.7H1330.83L1331.27 874.25L1374.57 949.25Z" stroke="black"/>
<path d="M1430.56 577.668L1429.71 577.488L1429.98 578.312L1456.74 660.676L1457.01 661.499L1457.59 660.856L1515.54 596.497L1516.12 595.854L1515.27 595.674L1430.56 577.668Z" stroke="black"/>
<path d="M125.433 611.364L125 610.614L124.567 611.364L81.2657 686.364L80.8327 687.114H81.6987H168.301H169.167L168.734 686.364L125.433 611.364Z" stroke="black"/>
<path d="M377.567 795.864L378 796.614L378.433 795.864L421.734 720.864L422.167 720.114H421.301H334.699H333.833L334.266 720.864L377.567 795.864Z" stroke="black"/>
<path d="M148.161 822.4L147.389 822.007L147.434 822.872L151.967 909.356L152.012 910.221L152.738 909.749L225.369 862.582L226.096 862.11L225.324 861.717L148.161 822.4Z" stroke="black"/>
<path d="M436.947 597.668L436.1 597.488L436.367 598.312L463.129 680.676L463.397 681.499L463.976 680.856L521.924 616.497L522.504 615.854L521.657 615.674L436.947 597.668Z" stroke="black"/>
<path d="M309.433 829.364L309 828.614L308.567 829.364L265.266 904.364L264.833 905.114H265.699H352.301H353.167L352.734 904.364L309.433 829.364Z" stroke="black"/>
<path d="M625.567 879.864L626 880.614L626.433 879.864L669.734 804.864L670.167 804.114H669.301H582.699H581.833L582.266 804.864L625.567 879.864Z" stroke="black"/>
<path d="M396.161 906.4L395.389 906.007L395.434 906.872L399.967 993.356L400.012 994.221L400.738 993.749L473.369 946.582L474.096 946.11L473.324 945.717L396.161 906.4Z" stroke="black"/>
<path d="M684.947 681.668L684.1 681.488L684.367 682.312L711.129 764.676L711.397 765.499L711.976 764.856L769.924 700.497L770.504 699.854L769.657 699.674L684.947 681.668Z" stroke="black"/>
<path d="M125.433 611.364L125 610.614L124.567 611.364L81.2657 686.364L80.8327 687.114H81.6987H168.301H169.167L168.734 686.364L125.433 611.364Z" stroke="black"/>
<path d="M377.567 795.864L378 796.614L378.433 795.864L421.734 720.864L422.167 720.114H421.301H334.699H333.833L334.266 720.864L377.567 795.864Z" stroke="black"/>
<path d="M148.161 822.4L147.389 822.007L147.434 822.872L151.967 909.356L152.012 910.221L152.738 909.749L225.369 862.582L226.096 862.11L225.324 861.717L148.161 822.4Z" stroke="black"/>
<path d="M436.947 597.668L436.1 597.488L436.367 598.312L463.129 680.676L463.397 681.499L463.976 680.856L521.924 616.497L522.504 615.854L521.657 615.674L436.947 597.668Z" stroke="black"/>
<path d="M309.433 829.364L309 828.614L308.567 829.364L265.266 904.364L264.833 905.114H265.699H352.301H353.167L352.734 904.364L309.433 829.364Z" stroke="black"/>
<path d="M625.567 879.864L626 880.614L626.433 879.864L669.734 804.864L670.167 804.114H669.301H582.699H581.833L582.266 804.864L625.567 879.864Z" stroke="black"/>
<path d="M396.161 906.4L395.389 906.007L395.434 906.872L399.967 993.356L400.012 994.221L400.738 993.749L473.369 946.582L474.096 946.11L473.324 945.717L396.161 906.4Z" stroke="black"/>
<path d="M684.947 681.668L684.1 681.488L684.367 682.312L711.129 764.676L711.397 765.499L711.976 764.856L769.924 700.497L770.504 699.854L769.657 699.674L684.947 681.668Z" stroke="black"/>
<path d="M67.433 50.3638L67 49.6138L66.567 50.3638L23.2657 125.364L22.8327 126.114H23.6987H110.301H111.167L110.734 125.364L67.433 50.3638Z" stroke="black"/>
<path d="M319.567 234.864L320 235.614L320.433 234.864L363.734 159.864L364.167 159.114H363.301H276.699H275.833L276.266 159.864L319.567 234.864Z" stroke="black"/>
<path d="M90.1605 261.4L89.3889 261.007L89.4342 261.872L93.9666 348.356L94.012 349.221L94.7383 348.749L167.369 301.582L168.096 301.11L167.324 300.717L90.1605 261.4Z" stroke="black"/>
<path d="M378.947 36.6681L378.1 36.4881L378.367 37.3117L405.129 119.676L405.397 120.499L405.976 119.856L463.924 55.4975L464.504 54.8539L463.657 54.6738L378.947 36.6681Z" stroke="black"/>
<path d="M251.433 268.364L251 267.614L250.567 268.364L207.266 343.364L206.833 344.114H207.699H294.301H295.167L294.734 343.364L251.433 268.364Z" stroke="black"/>
<path d="M1247.57 390.25L1248 391L1248.43 390.25L1291.73 315.25L1292.17 314.5H1291.3H1204.7H1203.83L1204.27 315.25L1247.57 390.25Z" stroke="black"/>
<path d="M1184.57 100.864L1185 101.614L1185.43 100.864L1228.73 25.8638L1229.17 25.1138H1228.3L1141.7 25.1138H1140.83L1141.27 25.8638L1184.57 100.864Z" stroke="black"/>
<path d="M338.161 345.4L337.389 345.007L337.434 345.872L341.967 432.356L342.012 433.221L342.738 432.749L415.369 385.582L416.096 385.11L415.324 384.717L338.161 345.4Z" stroke="black"/>
<path d="M1529.56 758.668L1528.71 758.488L1528.98 759.312L1555.74 841.676L1556.01 842.499L1556.59 841.856L1614.54 777.497L1615.12 776.854L1614.27 776.674L1529.56 758.668Z" stroke="black"/>
</svg>
